<svg id="Grupo_24" data-name="Grupo 24" xmlns="http://www.w3.org/2000/svg" xmlns:xlink="http://www.w3.org/1999/xlink" width="1440" height="169.682" viewBox="0 0 1440 169.682">
  <defs>
    <style>
      .cls-1 {
        fill: #d12314;
      }

      .cls-2 {
        clip-path: url(#clip-path);
      }

      .cls-3 {
        fill: #90190f;
      }

      .cls-4 {
        fill: #d12315;
      }
    </style>
    <clipPath id="clip-path">
      <rect id="Rectángulo_28" data-name="Rectángulo 28" class="cls-1" width="1440" height="169.682"/>
    </clipPath>
  </defs>
  <g id="Grupo_23" data-name="Grupo 23" class="cls-2">
    <path id="Trazado_77" data-name="Trazado 77" class="cls-3" d="M720.089,0H0V166.842c23.793-8.771,88.291-30.705,159.11-39.325,53.906-6.571,111.483-5.431,157.559,15.1q6.977,3.106,13.962,5.791C448.7,193.874,566.61,152.32,566.61,152.32s67.894-28.133,153.3-26.2v0l.089,0,.089,0v0c85.407-1.937,153.3,26.2,153.3,26.2s117.914,41.554,235.979-3.911q6.992-2.687,13.962-5.791c46.075-20.532,103.653-21.672,157.559-15.1,70.819,8.62,135.317,30.554,159.11,39.325V0Z"/>
    <path id="Trazado_78" data-name="Trazado 78" class="cls-4" d="M720.089,0H0V133.857s76.819-19.542,159.11-6.34c22.672,3.62,45.765,9.741,67.788,19.441A239.93,239.93,0,0,0,257,158.12c25.613,7.371,42.175,5.551,55.777,0a108.7,108.7,0,0,0,17.852-9.711c15.952-10.241,31.8-22.482,61.267-24.513,70.379-4.85,89.781,55.806,218.4,4.851C647.5,114.008,685.2,108.205,720,107.407c34.8.8,72.5,6.6,109.7,21.34,128.616,50.955,148.019-9.7,218.4-4.851,29.464,2.031,45.316,14.272,61.268,24.513a108.653,108.653,0,0,0,17.852,9.711c13.6,5.551,30.164,7.371,55.777,0a239.99,239.99,0,0,0,30.1-11.162c22.023-9.7,45.115-15.821,67.788-19.441,82.29-13.2,159.11,6.34,159.11,6.34V0Z"/>
  </g>
</svg>
