<svg id="Grupo_22" data-name="Grupo 22" xmlns="http://www.w3.org/2000/svg" xmlns:xlink="http://www.w3.org/1999/xlink" width="208.456" height="140" viewBox="0 0 208.456 140">
  <defs>
    <clipPath id="clip-path">
      <rect id="Rect치ngulo_7" data-name="Rect치ngulo 7" width="208.456" height="140" fill="none"/>
    </clipPath>
  </defs>
  <g id="Grupo_5" data-name="Grupo 5" clip-path="url(#clip-path)">
    <rect id="Rect치ngulo_6" data-name="Rect치ngulo 6" width="208.456" height="140" rx="57" transform="translate(0)" fill="#fefdfd"/>
    <path id="Trazado_11" data-name="Trazado 11" d="M157.127,134.021H55.767c-25.276,0-45.767-21.04-45.767-47V57C10,31.04,30.49,10,55.767,10H157.127c25.276,0,45.767,21.04,45.767,47v30.03c0,25.955-20.49,47-45.767,47" transform="translate(-2.219 -2.01)" fill="#d12315"/>
    <path id="Trazado_12" data-name="Trazado 12" d="M74.368,67.922a12.354,12.354,0,0,0-6.28-.117c-3.883,1.186-8.132-2.311-7.914-6.465.079-1.5.429-3.1,1.759-3.789,1.215-.633,1.384,1.2,2.246,1.659,4.163,2.232,8.623,1.014,12.949,1.118.99.024,1.177-1.616,1.57-2.561a90.294,90.294,0,0,1,7.177-14.082c3.263-5.108,7.079-9.679,12.839-12.635-15-5.2-38.791-2.025-48.965,13.848a29.157,29.157,0,0,0-4.44,11.356c-1.218,7.835.649,10.519,8.237,11.538C52.6,71.555,49.835,73,46.563,73.665A9.948,9.948,0,0,1,36.4,70.228c-2.8-3.308-3.594-7.286-3.082-11.548C34.659,47.5,40.168,38.8,49.554,33.367c17.409-10.084,35.69-12.408,54.673-4.584,1.881.775,3.988.952,5.917,1.626,3.076,1.073,4.38,3.623,4.474,6.746.091,3.023-1.678,4.845-4.514,4.852-2.6.007-4.4-1.349-3.935-4.524.385-2.6-.878-3.324-3.2-2.867a14.546,14.546,0,0,0-8.428,5.3c-4.549,5.439-7,12.015-9.475,18.587-.606,1.613-.279,2.192,1.411,2.059,1.157-.091,2.326-.015,3.49-.01,7.047.034,8.479,1.751,7.211,8.7,1.793.026,1.818-1.673,2.4-2.688,5.265-9.177,10.927-18.032,18.858-25.09,7.7-6.855,16.541-10.667,26.865-10.656,4.867.006,9.507,1.39,12.888,4.6,3.823,3.628,5.118,8.755,3.553,14.217-1.555,5.423-5.189,8.656-10.313,9.2-.549-.246-.268-.64-.126-.952,3.151-6.93.386-13.227-6.873-14.995-7.241-1.763-14.128-.142-20.649,3.236-7.078,3.666-12.556,9.249-17.286,15.665A102.379,102.379,0,0,0,90.694,93.945c-.424,1.44-.091,3.981-2.827,3.143-2.386-.73-4.82-1.692-4.363-5.058A25.127,25.127,0,0,1,85.932,84.5a119.092,119.092,0,0,0,5.581-15.258c.982-3.031.658-4.143-2.937-4.111-4.593.042-6.744,1.8-8.055,6.372A136.64,136.64,0,0,1,69.564,99.514c-3.066,5.621-6.779,10.695-12.258,14.08a19.8,19.8,0,0,1-16.02,2.652,11.042,11.042,0,0,1-8.307-10.3c-.244-4.894,2.206-9.057,6.438-10.779,1.884-.766,3.648-1.762,3.081,2.1-.57,3.887,2.208,6.361,6.188,6.368,7.093.012,11.182-4.992,14.679-10.111,5.262-7.7,8.377-16.532,11.005-25.6" transform="translate(-7.315 -4.848)" fill="#fefdfd"/>
    <path id="Trazado_13" data-name="Trazado 13" d="M114.985,106.094c-3.742,7.933-1.143,14.022,6.566,15.755,11.247,2.529,22.111,1.017,31.336-6.263,12.039-9.5,17.6-22.736,18.563-38.117.082-1.311.23-2.956-1.188-3.491-1.435-.542-2.342.872-3.1,1.9-4.927,6.624-7.6,14.417-10.679,21.991-.7,1.712-1.216,3.5-1.976,5.184-.552,1.22-.319,3.266-2.2,3.308a4.978,4.978,0,0,1-4.241-2.429c-.64-.97-1.133-2.041-1.755-3.182-2.975,2.713-5.349,7.35-10.2,5.2-3.851-1.71-1.9-5.746-1.937-9.643-2.036,2.621-3.536,4.819-5.3,6.759-2.285,2.509-5.138,4.8-8.5,2.808-3.482-2.064-3.014-5.858-2.083-9.286,1.046-3.85,3.222-7.222,4.731-10.87,1.856-4.486,5.292-8.729,2.89-14.181-.38-.863.423-1.194.986-1.35,1.583-.439,3.2-1.009,4.616.53,1.99,2.161,2.133,4.71,1.579,7.41-.946,4.615-3.528,8.515-5.293,12.772-.638,1.54-2.5,3.638-.4,4.868,1.8,1.052,3.227-1.155,4.291-2.567,4.5-5.962,6.926-12.981,9.447-19.945.685-1.894.821-4.481,4.02-2.96,2.6,1.234,3.859,2.5,2.276,5.739A61.6,61.6,0,0,0,142.18,92.2c-.24,1.334-.854,3.127.826,3.919,1.493.7,2.894-.371,3.711-1.492,4.916-6.76,9.04-13.843,6.9-22.847-.339-1.425.58-1.59,1.381-1.855,3.054-1.012,6.162,1.559,6.389,5,.1,1.448-1.15,2.65-.538,4.136,1.658.088,1.7-1.434,2.316-2.318,1.426-2.055,2.785-4.152,4.909-5.562,2.211-1.468,4.514-2.121,6.891-.563,2.284,1.5,2.3,3.944,2.237,6.386-.19,6.82-1.783,13.465-3.64,19.872-1.484,5.119-4.647,9.787-7.4,14.444-7.516,12.707-19.123,19.876-32.86,22.48-7.438,1.409-15.589,1.707-22.781-3.046-7.418-4.9-9.354-15.909-2.278-21.942,1.893-1.614,3.958-2.07,6.749-2.717" transform="translate(-23.042 -14.013)" fill="#fefdfd"/>
    <path id="Trazado_14" data-name="Trazado 14" d="M213.357,96.216c-1.168,2.056-2.03,3.455-2.779,4.916a9.709,9.709,0,0,1-8.106,5.3c-3.988.427-6.66-3.674-5.748-8.949,1.159-6.7,2.981-13.174,7.218-18.656,4.3-5.566,8.81-10.6,16.812-8.348.483.136,1.134-.557,1.73-.616,3.82-.374,5.921,2.722,4.4,6.412-2.268,5.494-4.405,11.038-5.277,16.979-.225,1.533-.584,3.323.966,4.383,1.663,1.137,2.835-.4,4.1-1.354.29,4.906-2.793,9.505-6.739,10.146-2.549.414-4.567-.353-5.672-2.983-.867-2.061.044-4.376-.906-7.232M206.1,93.2c.012,1.146-.2,2.031.528,2.564.892.654,1.73.137,2.469-.4a9.052,9.052,0,0,0,1.739-1.544c4.27-5.276,6.477-11.647,8.928-17.884.587-1.495-.294-1.929-1.523-1.849a7,7,0,0,0-4.423,2.221C209.024,81,206.936,87,206.1,93.2" transform="translate(-43.619 -14.04)" fill="#fefdfd"/>
  </g>
</svg>
